<svg width="366" height="177" viewBox="0 0 366 177" fill="none" xmlns="http://www.w3.org/2000/svg">
<g clip-path="url(#clip0_1665_589)">
<path d="M11.0733 49.508C13.2003 49.4816 15.3198 49.7651 17.3652 50.3496C21.9166 51.7822 24.4774 54.948 25.3676 59.5364C25.5977 60.7085 25.6677 61.9107 25.8078 63.0928C26.0778 62.1812 26.1579 61.2295 26.4579 60.3178C27.9084 55.8697 32.5898 52.5636 36.8311 52.8742C37.3612 52.8742 37.8914 52.8742 38.4216 52.8742C38.0285 52.6904 37.5899 52.6277 37.1612 52.6938C35.965 52.6906 34.7698 52.6271 33.5801 52.5035C31.0825 52.3099 28.716 51.3065 26.8388 49.6452C24.9617 47.9839 23.6762 45.7553 23.177 43.2967C22.6436 40.857 22.4985 38.3482 22.7468 35.8631C23.297 29.4114 26.628 25.0634 33.23 24.0215C35.0706 23.731 36.9511 23.8512 38.7917 23.5807C41.0925 23.2391 43.2323 22.1956 44.9196 20.5922C46.6069 18.9888 47.7598 16.9035 48.2212 14.6203C48.6826 12.337 48.4302 9.96685 47.4982 7.83251C46.5662 5.69816 45 3.90339 43.0129 2.6926C41.6126 1.94904 40.1235 1.38684 38.5816 1.01953H37.7814C37.5422 1.17197 37.2646 1.25296 36.9811 1.25296C36.6976 1.25296 36.42 1.17197 36.1808 1.01953H35.5907C34.1242 1.36406 32.7038 1.88197 31.3594 2.56236C29.6678 3.55105 28.2648 4.96698 27.2906 6.66873C26.3164 8.37047 25.8051 10.2984 25.8078 12.2601C25.7377 15.536 25.3576 18.7118 23.5271 21.527C21.4665 24.7028 18.3455 26.0452 14.7644 26.6163C12.5638 26.9669 10.3031 26.6163 8.14246 27.3075C6.14675 27.8775 4.34831 28.9914 2.94769 30.525C1.54707 32.0587 0.599321 33.9518 0.210085 35.9934C0.210085 36.1637 0.160048 36.324 0 36.4242V36.8249C0.324956 37.6627 0.324956 38.5919 0 39.4296V40.0307C0.270081 40.8022 0.510171 41.5836 0.800258 42.355C1.61248 44.4324 3.02254 46.2214 4.85155 47.4949C6.68056 48.7684 8.84607 49.4691 11.0733 49.508Z" fill="#79CDDB"/>
<path d="M89.8672 75.0352C89.8672 75.0352 89.8672 75.0952 89.9272 75.0352H89.8472H89.8672Z" fill="#FEFEFE"/>
<path d="M9.283 101.004C11.2336 101.394 13.2842 101.204 15.2248 101.544C18.4858 102.116 21.3166 103.408 23.2872 106.183C25.1178 108.758 25.6279 111.723 25.808 114.779H25.958C25.958 110.351 29.6591 105.933 34.2905 104.76C35.5039 104.566 36.734 104.495 37.9616 104.55V104.39C35.4696 104.457 32.9831 104.119 30.5994 103.388C28.9377 102.881 27.4279 101.968 26.2056 100.732C24.9834 99.4953 24.0871 97.9742 23.5973 96.3049C22.1362 91.8758 22.2279 87.0799 23.8574 82.7101C25.4078 78.5625 28.6789 76.5388 32.8601 75.6973C33.7145 75.6445 34.5619 75.5103 35.3908 75.2966C33.2693 74.8529 31.2922 73.8852 29.6391 72.4814C27.5754 70.6917 26.264 68.1865 25.968 65.4686C25.9327 65.3093 25.879 65.1547 25.808 65.0078C25.6679 66.1599 25.5879 67.3321 25.3578 68.4641C24.4976 72.8021 22.1569 75.9478 17.9056 77.4806C15.855 78.179 13.6994 78.5179 11.5337 78.4824C9.01628 78.4174 6.54974 79.1991 4.528 80.7027C2.50626 82.2064 1.04596 84.3452 0.380336 86.7775C0.270303 87.1482 0.320333 87.579 -0.00976562 87.8795V88.0699C0.137865 88.2352 0.21946 88.4492 0.21946 88.671C0.21946 88.8928 0.137865 89.1068 -0.00976562 89.2721V91.7266C0.150282 91.8268 0.160277 91.987 0.200289 92.1573C1.40065 96.9962 4.39153 100.012 9.283 101.004Z" fill="#95D7D2"/>
<path d="M99.4701 119.267C99.5801 118.956 99.4701 118.495 99.9902 118.385V117.383C99.8377 117.181 99.7551 116.935 99.7551 116.682C99.7551 116.429 99.8377 116.183 99.9902 115.981V115.38C99.8377 115.178 99.7551 114.931 99.7551 114.678C99.7551 114.425 99.8377 114.179 99.9902 113.977V113.376C99.6201 113.156 99.6501 112.755 99.5301 112.374C98.9249 110.312 97.7351 108.471 96.105 107.073C94.475 105.675 92.4748 104.781 90.3473 104.5C88.3467 104.169 86.3461 104.37 84.3455 103.959C79.5041 102.957 76.2631 100.232 74.9427 95.3931C74.6226 94.251 74.4825 93.0589 74.2625 91.8867C73.7723 92.3977 73.8024 93.109 73.5623 93.7201C72.9185 95.5497 71.8063 97.178 70.337 98.4421C68.8677 99.7062 67.0928 100.562 65.1898 100.923L64.1895 101.144C65.1397 101.264 66.0901 101.354 67.0303 101.524C71.1416 102.276 74.3425 104.249 76.083 108.227C77.0189 110.587 77.4779 113.111 77.4335 115.65C77.4049 117.7 77.9392 119.719 78.9783 121.486C80.0173 123.253 81.521 124.699 83.3252 125.668C84.3255 126.239 85.4359 126.41 86.4162 126.971H90.8075C92.3758 126.536 93.8673 125.86 95.2288 124.967C97.201 123.556 98.6838 121.563 99.4701 119.267ZM77.7336 116.712H77.6635V113.586H77.7336V116.712Z" fill="#A3D385"/>
<path d="M44.7437 124.115C46.0951 122.875 47.1328 121.33 47.7711 119.609C48.4094 117.888 48.63 116.04 48.4148 114.217C48.055 112.361 47.3123 110.6 46.2341 109.047C45.2855 107.719 44.0479 106.624 42.6149 105.845C41.1818 105.065 39.5906 104.622 37.9616 104.549C36.734 104.494 35.5039 104.565 34.2905 104.76C29.6591 105.922 25.968 110.34 25.958 114.778C25.958 115.599 25.958 116.421 25.958 117.252C26.088 121.54 30.2793 126.089 34.7706 126.81C35.1108 126.81 35.4909 126.69 35.771 127H39.172C39.2718 126.923 39.3832 126.862 39.5021 126.82C41.4678 126.428 43.2841 125.491 44.7437 124.115Z" fill="#78C9A9"/>
<path d="M99.6401 61.1298C99.307 59.7982 98.6968 58.5521 97.8496 57.4731C97.2689 56.5264 96.491 55.7165 95.5689 55.0988L94.5686 54.4475C94.3492 54.2313 94.0707 54.0849 93.7683 54.0268L93.5483 53.8865L92.9881 53.6662C92.7153 53.4162 92.3575 53.28 91.9878 53.2855C91.687 53.1056 91.336 53.0282 90.9875 53.065C90.8666 52.9765 90.7283 52.9147 90.5817 52.8836C90.4351 52.8525 90.2836 52.8529 90.1372 52.8847C89.1538 52.6244 88.1197 52.6244 87.1363 52.8847C86.3565 52.8984 85.5902 53.0903 84.8957 53.4457C84.7911 53.4371 84.6858 53.4514 84.5873 53.4878C84.4889 53.5241 84.3995 53.5816 84.3255 53.6561L83.8954 53.8565C83.6031 53.8995 83.3328 54.0367 83.1252 54.2472L82.725 54.4776C82.5607 54.512 82.405 54.5795 82.2674 54.6759C82.1299 54.7724 82.0133 54.8958 81.9248 55.0387L81.5547 55.2891C80.7385 55.8601 80.0559 56.6018 79.5541 57.4631C78.9613 58.0833 78.5376 58.8457 78.3237 59.6771L78.1537 60.0679C77.9385 60.4009 77.7985 60.777 77.7436 61.1698C77.0934 63.975 77.5035 66.9003 76.7433 69.6954C76.5189 70.0554 76.385 70.4645 76.3531 70.8876L75.933 71.8894C75.7298 72.1024 75.5941 72.3707 75.5429 72.6608C75.1908 73.0091 74.9178 73.4295 74.7427 73.8931C73.8774 74.82 72.9409 75.6775 71.9418 76.4578L71.5317 76.6882L69.351 77.69C66.1675 78.5678 62.8386 78.786 59.5681 78.3312C54.8066 77.68 51.1856 75.486 49.455 70.7473C48.9479 69.1134 48.5897 67.4368 48.3847 65.7382C47.9546 66.74 47.8246 67.8921 47.3244 68.914C46.5839 70.4812 45.4948 71.8578 44.1405 72.938C42.7863 74.0181 41.203 74.7733 39.5121 75.1454L38.5718 75.3758C40.0522 75.6763 41.5727 75.7364 43.0331 76.1872C48.1147 77.7801 50.6154 81.4168 51.3556 86.4961C51.4757 87.3176 51.5157 88.1491 51.5857 88.9706C51.8132 87.4041 52.2929 85.885 53.0061 84.4724C53.8447 82.8797 55.0689 81.5233 56.5666 80.5274C58.0643 79.5315 59.7877 78.9279 61.5787 78.772H63.9694C67.2604 78.8521 69.7111 80.5252 71.7617 82.9396C72.5848 84.0587 73.2575 85.2814 73.7623 86.5762C73.7424 87.0791 73.8941 87.5738 74.1924 87.9788C74.2072 87.9298 74.2072 87.8775 74.1924 87.8285C74.2563 87.7157 74.3035 87.5942 74.3325 87.4678C74.5063 84.9562 75.2891 82.525 76.6132 80.3849L76.9633 79.9541C77.0762 79.8987 77.1753 79.8186 77.2532 79.7198C77.3311 79.621 77.3859 79.5059 77.4134 79.3831L78.9739 77.9806C79.6092 77.5293 80.278 77.1273 80.9745 76.7783L81.5347 76.5679L81.9648 76.3776L82.7351 76.1572L83.9754 75.7865C84.4408 75.8204 84.9074 75.7414 85.3358 75.5561C85.9524 75.6382 86.5797 75.573 87.1664 75.3657H88.5268C89.1991 75.4673 89.8861 75.402 90.5274 75.1754H90.6074H90.6974C91.9089 75.0444 93.0733 74.6328 94.0984 73.9732L94.6986 73.6025L94.8987 73.4422C95.0219 73.4164 95.1387 73.3659 95.2419 73.2935C95.345 73.2212 95.4325 73.1287 95.4989 73.0215L95.979 72.6909C96.5967 72.2965 97.1085 71.7564 97.4694 71.118L97.6395 70.9176C97.8542 70.7795 98.0081 70.5645 98.0697 70.3165C98.9664 69.1456 99.5546 67.7676 99.7801 66.3092L100 66.1189V61.6708C99.9021 61.6151 99.8184 61.5372 99.7558 61.4432C99.6933 61.3493 99.6536 61.2419 99.6401 61.1298ZM89.9772 75.0853C89.9772 75.0853 89.9272 75.0853 89.9172 75.0853H89.9972H89.9772ZM90.8975 53.1853H90.8375H90.9275H90.8975Z" fill="#9CD6B3"/>
<path d="M0 36.8555V39.4602C0.324858 38.6224 0.324858 37.6932 0 36.8555Z" fill="#8CD1DD"/>
<path d="M37.791 1H36.1909C36.43 1.15216 36.7076 1.23297 36.991 1.23297C37.2744 1.23297 37.5519 1.15216 37.791 1Z" fill="#95CCD5"/>
<path d="M99.9801 115.379V113.977C99.8276 114.178 99.7451 114.425 99.7451 114.678C99.7451 114.931 99.8276 115.177 99.9801 115.379Z" fill="#ADD395"/>
<path d="M99.9801 117.383V115.98C99.8276 116.182 99.7451 116.429 99.7451 116.682C99.7451 116.935 99.8276 117.181 99.9801 117.383Z" fill="#ADD395"/>
<path d="M0 88.1289V89.3311C0.147586 89.1658 0.229187 88.9518 0.229187 88.73C0.229187 88.5083 0.147586 88.2942 0 88.1289Z" fill="#B2D0CE"/>
<path d="M34.7905 126.789C34.8054 126.852 34.8054 126.917 34.7905 126.979H35.7905C35.5105 126.679 35.1305 126.789 34.7905 126.789Z" fill="#A7CBBE"/>
<path d="M38.5714 75.3349L39.5117 75.1044C41.2026 74.7324 42.786 73.9773 44.1402 72.8971C45.4944 71.8169 46.5836 70.4404 47.3241 68.8731C47.8242 67.8713 47.9543 66.7292 48.3844 65.6973C48.3844 64.7957 48.3844 63.884 48.3844 62.9924C47.9543 57.7228 43.3829 53.0943 38.4414 52.8639C37.9112 52.8639 37.3811 52.924 36.851 52.8639C32.6097 52.5533 27.9283 55.8694 26.4778 60.3075C26.1777 61.2191 26.0977 62.1708 25.8276 63.0825V65.0862C25.8987 65.233 25.9524 65.3877 25.9877 65.547C26.2837 68.2649 27.5951 70.7701 29.6588 72.5598C31.3119 73.9636 33.289 74.9313 35.4105 75.375H38.5815L38.5714 75.3349Z" fill="#4ABAC3"/>
<path d="M74.1725 88.941V87.9392C73.8741 87.5342 73.7224 87.0395 73.7424 86.5366C73.2375 85.2419 72.5649 84.0192 71.7418 82.9C69.7412 80.4856 67.2404 78.8126 63.9494 78.7324C63.1842 79.0329 62.3339 79.0329 61.5687 78.7324C59.7776 78.8883 58.0543 79.4919 56.5566 80.4878C55.0589 81.4837 53.8347 82.8401 52.9962 84.4328C52.2829 85.8454 51.8032 87.3646 51.5757 88.931V90.7243C51.7809 91.8886 52.0684 93.037 52.4359 94.1605C53.204 96.0715 54.4798 97.7353 56.125 98.9716C57.7702 100.208 59.7221 100.969 61.7687 101.173C62.146 101.009 62.5528 100.925 62.9641 100.925C63.3754 100.925 63.7822 101.009 64.1595 101.173L65.1598 100.953C67.0628 100.591 68.8377 99.7358 70.307 98.4718C71.7763 97.2077 72.8885 95.5794 73.5323 93.7498C73.7724 93.1387 73.7424 92.4274 74.2325 91.9165C74.2325 91.5157 74.2325 91.125 74.2325 90.7343C74.0769 90.4631 73.9901 90.1578 73.9796 89.8452C73.9692 89.5325 74.0354 89.2221 74.1725 88.941Z" fill="#7CC688"/>
<path d="M74.1921 90.7232C74.1921 90.1221 74.1921 89.521 74.1921 88.9199C74.0441 89.1973 73.9668 89.507 73.9668 89.8215C73.9668 90.1361 74.0441 90.4458 74.1921 90.7232Z" fill="#7DB787"/>
<path d="M52.4758 94.1804C52.1083 93.0568 51.8208 91.9085 51.6156 90.7441C51.5914 93.0059 51.14 95.2425 50.2852 97.3361C48.4146 101.624 44.8736 103.527 40.4823 104.169C39.662 104.289 38.8317 104.319 38.0015 104.389V104.549C39.6253 104.627 41.2106 105.072 42.6381 105.851C44.0657 106.63 45.2985 107.723 46.244 109.048C47.3222 110.6 48.0649 112.361 48.4246 114.217C48.5447 113.365 48.6447 112.514 48.7947 111.672C49.795 106.112 52.7959 102.966 58.2876 101.654C59.4579 101.384 60.6583 101.474 61.8186 101.163C59.7735 100.963 57.8219 100.207 56.1751 98.9765C54.5283 97.7456 53.249 96.0871 52.4758 94.1804Z" fill="#A3D386"/>
<path d="M61.7983 101.162H64.1883C63.8112 100.999 63.4045 100.914 62.9933 100.914C62.5822 100.914 62.1755 100.999 61.7983 101.162Z" fill="#74C37F"/>
<path d="M25.8079 114.768C25.699 115.592 25.7568 116.431 25.9778 117.232C25.9778 116.401 25.9778 115.579 25.9778 114.758L25.8079 114.768Z" fill="#83B7A4"/>
<path d="M77.6631 116.772H77.7331V113.656H77.6631V116.772Z" fill="#A3D485"/>
<path d="M63.9684 78.7012H61.5884C62.3534 79.0011 63.2034 79.0011 63.9684 78.7012Z" fill="#72C380"/>
</g>
<path d="M125.336 95.552V14.36H140.976V95.552C140.976 96.912 141.293 98.2267 141.928 99.496C142.653 100.675 144.013 101.264 146.008 101.264H148.184V115.68H144.376C139.208 115.68 135.264 114.683 132.544 112.688C129.824 110.693 127.92 108.155 126.832 105.072C125.835 101.989 125.336 98.816 125.336 95.552ZM197.058 59.24C194.791 59.24 192.207 59.784 189.306 60.872C186.405 61.96 182.959 64.0907 178.97 67.264V115H163.33V46.048H178.154V55.296C182.415 51.5787 186.45 48.904 190.258 47.272C194.066 45.5493 197.919 44.688 201.818 44.688C208.437 44.688 213.469 46.8187 216.914 51.08C220.359 55.2507 222.082 61.144 222.082 68.76V115H206.442V70.664C206.442 63.048 203.314 59.24 197.058 59.24ZM279.2 115L264.92 91.88L250.912 115H234.592L256.896 79.64L236.088 46.048H252.952L265.736 66.584L278.112 46.048H294.432L273.624 78.96L296.064 115H279.2ZM345.872 115L331.592 91.88L317.584 115H301.264L323.568 79.64L302.76 46.048H319.624L332.408 66.584L344.784 46.048H361.104L340.296 78.96L362.736 115H345.872Z" fill="black"/>
<path d="M23.0075 156.879C23.0075 158.52 22.8036 160.015 22.3958 161.365C21.988 162.705 21.3666 163.86 20.5315 164.831C19.7062 165.802 18.6575 166.55 17.3855 167.074C16.1135 167.589 14.6085 167.846 12.8704 167.846C11.1323 167.846 9.62727 167.589 8.35527 167.074C7.08327 166.55 6.02974 165.802 5.19469 164.831C4.36934 163.86 3.75276 162.7 3.34495 161.35C2.93713 160 2.73322 158.5 2.73322 156.849C2.73322 154.645 3.09249 152.728 3.81102 151.096C4.53927 149.455 5.65591 148.183 7.16095 147.28C8.66598 146.377 10.5788 145.926 12.8995 145.926C15.2105 145.926 17.1088 146.377 18.5944 147.28C20.0897 148.183 21.1966 149.455 21.9152 151.096C22.6434 152.737 23.0075 154.665 23.0075 156.879ZM7.46681 156.879C7.46681 158.364 7.6513 159.646 8.02027 160.724C8.39896 161.792 8.98641 162.617 9.78263 163.2C10.5788 163.773 11.6081 164.059 12.8704 164.059C14.1521 164.059 15.1911 163.773 15.9873 163.2C16.7835 162.617 17.3612 161.792 17.7205 160.724C18.0895 159.646 18.274 158.364 18.274 156.879C18.274 154.645 17.8564 152.888 17.0214 151.606C16.1863 150.324 14.8124 149.684 12.8995 149.684C11.6275 149.684 10.5885 149.975 9.78263 150.557C8.98641 151.13 8.39896 151.956 8.02027 153.033C7.6513 154.102 7.46681 155.383 7.46681 156.879ZM36.1305 150.965C37.9657 150.965 39.4464 151.679 40.5728 153.106C41.7089 154.534 42.2769 156.626 42.2769 159.384C42.2769 161.229 42.0099 162.782 41.4758 164.045C40.9418 165.297 40.2038 166.244 39.262 166.885C38.3201 167.526 37.2374 167.846 36.014 167.846C35.2275 167.846 34.5526 167.749 33.9895 167.555C33.4263 167.351 32.9456 167.093 32.5475 166.783C32.1494 166.462 31.8047 166.122 31.5134 165.763H31.2804C31.3581 166.152 31.4163 166.55 31.4552 166.958C31.494 167.365 31.5134 167.763 31.5134 168.152V174.721H27.0711V151.271H30.6832L31.3095 153.383H31.5134C31.8047 152.946 32.1591 152.543 32.5767 152.174C32.9942 151.805 33.4943 151.514 34.0769 151.3C34.6692 151.077 35.3537 150.965 36.1305 150.965ZM34.7031 154.519C33.9264 154.519 33.3098 154.679 32.8534 155C32.397 155.32 32.062 155.801 31.8484 156.442C31.6445 157.083 31.5329 157.893 31.5134 158.874V159.355C31.5134 160.403 31.6105 161.292 31.8047 162.02C32.0086 162.748 32.3436 163.302 32.8097 163.68C33.2855 164.059 33.9361 164.248 34.7614 164.248C35.4411 164.248 35.9994 164.059 36.4364 163.68C36.8733 163.302 37.1986 162.748 37.4122 162.02C37.6355 161.282 37.7472 160.384 37.7472 159.326C37.7472 157.733 37.4996 156.534 37.0044 155.728C36.5092 154.922 35.7421 154.519 34.7031 154.519ZM52.8073 164.307C53.2928 164.307 53.7637 164.258 54.2201 164.161C54.6862 164.064 55.1474 163.943 55.6038 163.797V167.103C55.128 167.317 54.5357 167.492 53.8268 167.628C53.1277 167.773 52.3606 167.846 51.5256 167.846C50.5546 167.846 49.6807 167.691 48.9039 167.38C48.1368 167.059 47.53 166.511 47.0833 165.734C46.6463 164.948 46.4279 163.855 46.4279 162.457V154.607H44.3014V152.728L46.7483 151.242L48.03 147.805H50.8702V151.271H55.429V154.607H50.8702V162.457C50.8702 163.078 51.0449 163.544 51.3945 163.855C51.7538 164.156 52.2247 164.307 52.8073 164.307ZM63.3523 151.271V167.555H58.91V151.271H63.3523ZM61.1384 144.892C61.7987 144.892 62.3667 145.047 62.8425 145.358C63.3183 145.659 63.5562 146.227 63.5562 147.062C63.5562 147.887 63.3183 148.46 62.8425 148.781C62.3667 149.091 61.7987 149.247 61.1384 149.247C60.4684 149.247 59.8955 149.091 59.4198 148.781C58.9537 148.46 58.7206 147.887 58.7206 147.062C58.7206 146.227 58.9537 145.659 59.4198 145.358C59.8955 145.047 60.4684 144.892 61.1384 144.892ZM82.8255 159.384C82.8255 160.743 82.641 161.947 82.2721 162.996C81.9128 164.045 81.3836 164.933 80.6845 165.661C79.9951 166.38 79.16 166.924 78.1793 167.293C77.2083 167.661 76.1111 167.846 74.8877 167.846C73.7419 167.846 72.6884 167.661 71.7271 167.293C70.7755 166.924 69.9453 166.38 69.2365 165.661C68.5374 164.933 67.9936 164.045 67.6052 162.996C67.2265 161.947 67.0372 160.743 67.0372 159.384C67.0372 157.578 67.3576 156.048 67.9985 154.796C68.6393 153.543 69.5521 152.592 70.7367 151.941C71.9213 151.291 73.3341 150.965 74.9751 150.965C76.4995 150.965 77.8492 151.291 79.0241 151.941C80.2087 152.592 81.136 153.543 81.806 154.796C82.4857 156.048 82.8255 157.578 82.8255 159.384ZM71.5669 159.384C71.5669 160.452 71.6834 161.35 71.9164 162.078C72.1495 162.807 72.5136 163.355 73.0088 163.724C73.504 164.093 74.1497 164.278 74.9459 164.278C75.7324 164.278 76.3684 164.093 76.8539 163.724C77.3491 163.355 77.7084 162.807 77.9317 162.078C78.1648 161.35 78.2813 160.452 78.2813 159.384C78.2813 158.306 78.1648 157.413 77.9317 156.704C77.7084 155.985 77.3491 155.446 76.8539 155.087C76.3587 154.728 75.713 154.548 74.9168 154.548C73.7419 154.548 72.8874 154.951 72.3534 155.757C71.829 156.563 71.5669 157.772 71.5669 159.384ZM95.7446 150.965C97.4826 150.965 98.8809 151.441 99.9393 152.393C100.998 153.335 101.527 154.849 101.527 156.937V167.555H97.0845V158.044C97.0845 156.879 96.8709 156 96.4437 155.408C96.0262 154.815 95.3659 154.519 94.4629 154.519C93.1035 154.519 92.1762 154.98 91.681 155.903C91.1858 156.825 90.9382 158.155 90.9382 159.894V167.555H86.4959V151.271H89.8895L90.4866 153.354H90.7343C91.0838 152.791 91.5159 152.334 92.0305 151.985C92.5549 151.635 93.1326 151.378 93.7637 151.213C94.4046 151.048 95.0649 150.965 95.7446 150.965ZM117.461 162.719C117.461 163.826 117.199 164.763 116.674 165.53C116.16 166.288 115.388 166.865 114.359 167.263C113.329 167.652 112.048 167.846 110.513 167.846C109.377 167.846 108.401 167.773 107.586 167.628C106.78 167.482 105.964 167.239 105.139 166.899V163.229C106.023 163.627 106.969 163.957 107.979 164.219C108.999 164.472 109.892 164.598 110.659 164.598C111.523 164.598 112.14 164.472 112.509 164.219C112.887 163.957 113.077 163.617 113.077 163.2C113.077 162.928 112.999 162.685 112.844 162.472C112.698 162.248 112.378 162.001 111.882 161.729C111.387 161.447 110.61 161.083 109.552 160.636C108.533 160.209 107.693 159.777 107.032 159.34C106.382 158.903 105.896 158.389 105.576 157.796C105.265 157.194 105.11 156.432 105.11 155.51C105.11 154.004 105.692 152.873 106.858 152.116C108.032 151.349 109.601 150.965 111.562 150.965C112.572 150.965 113.533 151.067 114.446 151.271C115.368 151.475 116.315 151.8 117.286 152.247L115.946 155.451C115.14 155.102 114.378 154.815 113.659 154.592C112.951 154.369 112.227 154.257 111.489 154.257C110.839 154.257 110.348 154.344 110.018 154.519C109.688 154.694 109.523 154.961 109.523 155.32C109.523 155.582 109.605 155.815 109.771 156.019C109.945 156.223 110.275 156.451 110.761 156.704C111.256 156.947 111.98 157.262 112.931 157.651C113.854 158.029 114.655 158.427 115.334 158.845C116.014 159.253 116.538 159.762 116.907 160.374C117.276 160.976 117.461 161.758 117.461 162.719ZM135.594 145.955C136.74 145.955 137.759 146.135 138.653 146.494C139.546 146.853 140.25 147.377 140.765 148.067C141.289 148.756 141.551 149.596 141.551 150.587C141.551 151.956 141.143 153.106 140.328 154.038C139.522 154.971 138.512 155.786 137.298 156.485L141.435 160.52C141.842 159.85 142.187 159.141 142.469 158.393C142.76 157.646 143.012 156.893 143.226 156.136H147.858C147.557 157.252 147.115 158.447 146.532 159.719C145.959 160.981 145.226 162.171 144.333 163.287L148.717 167.555H143.226L141.551 165.909C140.978 166.307 140.362 166.652 139.701 166.943C139.051 167.234 138.352 167.458 137.604 167.613C136.866 167.768 136.084 167.846 135.259 167.846C133.647 167.846 132.264 167.594 131.108 167.089C129.953 166.584 129.069 165.88 128.457 164.977C127.846 164.064 127.54 163.006 127.54 161.802C127.54 160.792 127.695 159.928 128.006 159.209C128.317 158.481 128.763 157.845 129.346 157.301C129.928 156.748 130.627 156.238 131.443 155.772C130.928 155.17 130.516 154.607 130.205 154.082C129.904 153.558 129.686 153.038 129.55 152.524C129.423 151.999 129.36 151.451 129.36 150.878C129.36 149.868 129.622 148.999 130.147 148.271C130.681 147.533 131.414 146.965 132.346 146.567C133.288 146.159 134.371 145.955 135.594 145.955ZM134.036 158.423C133.667 158.704 133.341 158.995 133.06 159.296C132.788 159.597 132.579 159.918 132.434 160.258C132.288 160.598 132.215 160.971 132.215 161.379C132.215 162.234 132.535 162.904 133.176 163.389C133.817 163.875 134.613 164.117 135.565 164.117C136.206 164.117 136.803 164.04 137.356 163.884C137.91 163.729 138.415 163.511 138.871 163.229L134.036 158.423ZM135.565 149.392C135.07 149.392 134.594 149.519 134.138 149.771C133.691 150.023 133.468 150.494 133.468 151.184C133.468 151.669 133.594 152.145 133.846 152.611C134.099 153.067 134.434 153.534 134.851 154.009C135.686 153.553 136.327 153.097 136.774 152.64C137.221 152.174 137.444 151.645 137.444 151.053C137.444 150.46 137.24 150.038 136.832 149.786C136.434 149.523 136.012 149.392 135.565 149.392ZM178.473 156.879C178.473 158.52 178.269 160.015 177.861 161.365C177.454 162.705 176.832 163.86 175.997 164.831C175.172 165.802 174.123 166.55 172.851 167.074C171.579 167.589 170.074 167.846 168.336 167.846C166.598 167.846 165.093 167.589 163.821 167.074C162.549 166.55 161.495 165.802 160.66 164.831C159.835 163.86 159.218 162.7 158.811 161.35C158.403 160 158.199 158.5 158.199 156.849C158.199 154.645 158.558 152.728 159.277 151.096C160.005 149.455 161.121 148.183 162.627 147.28C164.132 146.377 166.044 145.926 168.365 145.926C170.676 145.926 172.574 146.377 174.06 147.28C175.555 148.183 176.662 149.455 177.381 151.096C178.109 152.737 178.473 154.665 178.473 156.879ZM162.932 156.879C162.932 158.364 163.117 159.646 163.486 160.724C163.865 161.792 164.452 162.617 165.248 163.2C166.044 163.773 167.074 164.059 168.336 164.059C169.618 164.059 170.657 163.773 171.453 163.2C172.249 162.617 172.827 161.792 173.186 160.724C173.555 159.646 173.74 158.364 173.74 156.879C173.74 154.645 173.322 152.888 172.487 151.606C171.652 150.324 170.278 149.684 168.365 149.684C167.093 149.684 166.054 149.975 165.248 150.557C164.452 151.13 163.865 151.956 163.486 153.033C163.117 154.102 162.932 155.383 162.932 156.879ZM191.596 150.965C193.431 150.965 194.912 151.679 196.038 153.106C197.174 154.534 197.742 156.626 197.742 159.384C197.742 161.229 197.475 162.782 196.941 164.045C196.407 165.297 195.669 166.244 194.728 166.885C193.786 167.526 192.703 167.846 191.48 167.846C190.693 167.846 190.018 167.749 189.455 167.555C188.892 167.351 188.411 167.093 188.013 166.783C187.615 166.462 187.27 166.122 186.979 165.763H186.746C186.824 166.152 186.882 166.55 186.921 166.958C186.96 167.365 186.979 167.763 186.979 168.152V174.721H182.537V151.271H186.149L186.775 153.383H186.979C187.27 152.946 187.625 152.543 188.042 152.174C188.46 151.805 188.96 151.514 189.542 151.3C190.135 151.077 190.819 150.965 191.596 150.965ZM190.169 154.519C189.392 154.519 188.775 154.679 188.319 155C187.863 155.32 187.528 155.801 187.314 156.442C187.11 157.083 186.998 157.893 186.979 158.874V159.355C186.979 160.403 187.076 161.292 187.27 162.02C187.474 162.748 187.809 163.302 188.275 163.68C188.751 164.059 189.402 164.248 190.227 164.248C190.907 164.248 191.465 164.059 191.902 163.68C192.339 163.302 192.664 162.748 192.878 162.02C193.101 161.282 193.213 160.384 193.213 159.326C193.213 157.733 192.965 156.534 192.47 155.728C191.975 154.922 191.208 154.519 190.169 154.519ZM210.472 150.965C212.307 150.965 213.788 151.679 214.914 153.106C216.051 154.534 216.619 156.626 216.619 159.384C216.619 161.229 216.352 162.782 215.817 164.045C215.283 165.297 214.545 166.244 213.604 166.885C212.662 167.526 211.579 167.846 210.356 167.846C209.569 167.846 208.894 167.749 208.331 167.555C207.768 167.351 207.287 167.093 206.889 166.783C206.491 166.462 206.146 166.122 205.855 165.763H205.622C205.7 166.152 205.758 166.55 205.797 166.958C205.836 167.365 205.855 167.763 205.855 168.152V174.721H201.413V151.271H205.025L205.651 153.383H205.855C206.146 152.946 206.501 152.543 206.918 152.174C207.336 151.805 207.836 151.514 208.419 151.3C209.011 151.077 209.695 150.965 210.472 150.965ZM209.045 154.519C208.268 154.519 207.651 154.679 207.195 155C206.739 155.32 206.404 155.801 206.19 156.442C205.986 157.083 205.875 157.893 205.855 158.874V159.355C205.855 160.403 205.952 161.292 206.146 162.02C206.35 162.748 206.685 163.302 207.151 163.68C207.627 164.059 208.278 164.248 209.103 164.248C209.783 164.248 210.341 164.059 210.778 163.68C211.215 163.302 211.54 162.748 211.754 162.02C211.977 161.282 212.089 160.384 212.089 159.326C212.089 157.733 211.841 156.534 211.346 155.728C210.851 154.922 210.084 154.519 209.045 154.519ZM235.087 159.384C235.087 160.743 234.902 161.947 234.533 162.996C234.174 164.045 233.645 164.933 232.946 165.661C232.256 166.38 231.421 166.924 230.441 167.293C229.47 167.661 228.372 167.846 227.149 167.846C226.003 167.846 224.95 167.661 223.988 167.293C223.037 166.924 222.207 166.38 221.498 165.661C220.799 164.933 220.255 164.045 219.867 162.996C219.488 161.947 219.298 160.743 219.298 159.384C219.298 157.578 219.619 156.048 220.26 154.796C220.901 153.543 221.813 152.592 222.998 151.941C224.183 151.291 225.595 150.965 227.236 150.965C228.761 150.965 230.11 151.291 231.285 151.941C232.47 152.592 233.397 153.543 234.067 154.796C234.747 156.048 235.087 157.578 235.087 159.384ZM223.828 159.384C223.828 160.452 223.945 161.35 224.178 162.078C224.411 162.807 224.775 163.355 225.27 163.724C225.765 164.093 226.411 164.278 227.207 164.278C227.994 164.278 228.63 164.093 229.115 163.724C229.61 163.355 229.97 162.807 230.193 162.078C230.426 161.35 230.543 160.452 230.543 159.384C230.543 158.306 230.426 157.413 230.193 156.704C229.97 155.985 229.61 155.446 229.115 155.087C228.62 154.728 227.974 154.548 227.178 154.548C226.003 154.548 225.149 154.951 224.615 155.757C224.09 156.563 223.828 157.772 223.828 159.384ZM247.846 150.965C248.069 150.965 248.326 150.98 248.618 151.009C248.919 151.028 249.161 151.058 249.346 151.096L249.011 155.262C248.865 155.213 248.656 155.179 248.385 155.16C248.122 155.131 247.894 155.116 247.7 155.116C247.127 155.116 246.569 155.189 246.025 155.335C245.491 155.48 245.01 155.718 244.583 156.048C244.156 156.369 243.816 156.796 243.564 157.33C243.321 157.854 243.199 158.5 243.199 159.267V167.555H238.757V151.271H242.122L242.777 154.009H242.996C243.316 153.456 243.714 152.951 244.19 152.495C244.675 152.029 245.224 151.66 245.836 151.388C246.457 151.106 247.127 150.965 247.846 150.965ZM259.163 164.307C259.648 164.307 260.119 164.258 260.575 164.161C261.041 164.064 261.503 163.943 261.959 163.797V167.103C261.483 167.317 260.891 167.492 260.182 167.628C259.483 167.773 258.716 167.846 257.881 167.846C256.91 167.846 256.036 167.691 255.259 167.38C254.492 167.059 253.885 166.511 253.439 165.734C253.002 164.948 252.783 163.855 252.783 162.457V154.607H250.657V152.728L253.104 151.242L254.385 147.805H257.225V151.271H261.784V154.607H257.225V162.457C257.225 163.078 257.4 163.544 257.75 163.855C258.109 164.156 258.58 164.307 259.163 164.307ZM280.209 151.271V167.555H276.801L276.203 165.472H275.97C275.621 166.025 275.184 166.477 274.66 166.826C274.135 167.176 273.558 167.433 272.926 167.598C272.295 167.763 271.64 167.846 270.96 167.846C269.795 167.846 268.78 167.642 267.916 167.234C267.052 166.817 266.377 166.171 265.892 165.297C265.416 164.423 265.178 163.287 265.178 161.889V151.271H269.62V160.782C269.62 161.947 269.829 162.826 270.246 163.418C270.664 164.011 271.329 164.307 272.242 164.307C273.145 164.307 273.854 164.103 274.368 163.695C274.883 163.277 275.242 162.671 275.446 161.874C275.66 161.068 275.767 160.088 275.767 158.932V151.271H280.209ZM294.118 150.965C295.856 150.965 297.255 151.441 298.313 152.393C299.371 153.335 299.901 154.849 299.901 156.937V167.555H295.458V158.044C295.458 156.879 295.245 156 294.817 155.408C294.4 154.815 293.74 154.519 292.837 154.519C291.477 154.519 290.55 154.98 290.055 155.903C289.559 156.825 289.312 158.155 289.312 159.894V167.555H284.87V151.271H288.263L288.86 153.354H289.108C289.458 152.791 289.89 152.334 290.404 151.985C290.929 151.635 291.506 151.378 292.137 151.213C292.778 151.048 293.439 150.965 294.118 150.965ZM308.916 151.271V167.555H304.474V151.271H308.916ZM306.702 144.892C307.363 144.892 307.931 145.047 308.406 145.358C308.882 145.659 309.12 146.227 309.12 147.062C309.12 147.887 308.882 148.46 308.406 148.781C307.931 149.091 307.363 149.247 306.702 149.247C306.032 149.247 305.459 149.091 304.984 148.781C304.518 148.46 304.285 147.887 304.285 147.062C304.285 146.227 304.518 145.659 304.984 145.358C305.459 145.047 306.032 144.892 306.702 144.892ZM320.452 164.307C320.937 164.307 321.408 164.258 321.864 164.161C322.33 164.064 322.792 163.943 323.248 163.797V167.103C322.772 167.317 322.18 167.492 321.471 167.628C320.772 167.773 320.005 167.846 319.17 167.846C318.199 167.846 317.325 167.691 316.548 167.38C315.781 167.059 315.174 166.511 314.728 165.734C314.291 164.948 314.072 163.855 314.072 162.457V154.607H311.946V152.728L314.393 151.242L315.674 147.805H318.514V151.271H323.073V154.607H318.514V162.457C318.514 163.078 318.689 163.544 319.039 163.855C319.398 164.156 319.869 164.307 320.452 164.307ZM330.997 151.271V167.555H326.554V151.271H330.997ZM328.783 144.892C329.443 144.892 330.011 145.047 330.487 145.358C330.963 145.659 331.201 146.227 331.201 147.062C331.201 147.887 330.963 148.46 330.487 148.781C330.011 149.091 329.443 149.247 328.783 149.247C328.113 149.247 327.54 149.091 327.064 148.781C326.598 148.46 326.365 147.887 326.365 147.062C326.365 146.227 326.598 145.659 327.064 145.358C327.54 145.047 328.113 144.892 328.783 144.892ZM342.386 150.965C343.891 150.965 345.188 151.257 346.275 151.839C347.363 152.412 348.203 153.247 348.795 154.344C349.387 155.442 349.683 156.782 349.683 158.364V160.52H339.182C339.231 161.772 339.604 162.758 340.304 163.477C341.012 164.185 341.993 164.54 343.246 164.54C344.285 164.54 345.236 164.433 346.1 164.219C346.965 164.006 347.853 163.685 348.766 163.258V166.695C347.96 167.093 347.115 167.385 346.231 167.569C345.358 167.754 344.294 167.846 343.042 167.846C341.41 167.846 339.964 167.545 338.701 166.943C337.449 166.341 336.463 165.423 335.745 164.19C335.036 162.957 334.682 161.403 334.682 159.529C334.682 157.626 335.002 156.044 335.643 154.781C336.293 153.509 337.196 152.558 338.352 151.927C339.507 151.286 340.852 150.965 342.386 150.965ZM342.415 154.126C341.551 154.126 340.833 154.403 340.26 154.956C339.697 155.51 339.371 156.379 339.284 157.563H345.518C345.508 156.903 345.387 156.315 345.154 155.801C344.93 155.286 344.59 154.878 344.134 154.577C343.687 154.276 343.115 154.126 342.415 154.126ZM364.656 162.719C364.656 163.826 364.394 164.763 363.87 165.53C363.355 166.288 362.583 166.865 361.554 167.263C360.524 167.652 359.243 167.846 357.709 167.846C356.573 167.846 355.597 167.773 354.781 167.628C353.975 167.482 353.16 167.239 352.334 166.899V163.229C353.218 163.627 354.164 163.957 355.174 164.219C356.194 164.472 357.087 164.598 357.854 164.598C358.718 164.598 359.335 164.472 359.704 164.219C360.083 163.957 360.272 163.617 360.272 163.2C360.272 162.928 360.194 162.685 360.039 162.472C359.893 162.248 359.573 162.001 359.078 161.729C358.582 161.447 357.806 161.083 356.747 160.636C355.728 160.209 354.888 159.777 354.228 159.34C353.577 158.903 353.092 158.389 352.771 157.796C352.46 157.194 352.305 156.432 352.305 155.51C352.305 154.004 352.888 152.873 354.053 152.116C355.228 151.349 356.796 150.965 358.757 150.965C359.767 150.965 360.728 151.067 361.641 151.271C362.564 151.475 363.51 151.8 364.481 152.247L363.141 155.451C362.335 155.102 361.573 154.815 360.855 154.592C360.146 154.369 359.422 154.257 358.684 154.257C358.034 154.257 357.544 154.344 357.213 154.519C356.883 154.694 356.718 154.961 356.718 155.32C356.718 155.582 356.801 155.815 356.966 156.019C357.141 156.223 357.471 156.451 357.956 156.704C358.451 156.947 359.175 157.262 360.126 157.651C361.049 158.029 361.85 158.427 362.53 158.845C363.209 159.253 363.734 159.762 364.103 160.374C364.472 160.976 364.656 161.758 364.656 162.719Z" fill="black"/>
<defs>
<clipPath id="clip0_1665_589">
<rect width="100" height="126" fill="white" transform="translate(0 1)"/>
</clipPath>
</defs>
</svg>
